HIERARCHY
ROOT Hips
{
  OFFSET 0 0 0
  CHANNELS 6 Xposition Yposition Zposition Zrotation Yrotation Xrotation
  JOINT LeftThigh
  {
    OFFSET 8.409438 0 -5.917753
    CHANNELS 3 Zrotation Yrotation Xrotation
    JOINT LeftLeg
    {
      OFFSET 0 0 -42.358652
      CHANNELS 3 Zrotation Yrotation Xrotation
      JOINT LeftFoot
      {
        OFFSET 0 0 -39.357303
        CHANNELS 3 Zrotation Yrotation Xrotation
      }
    }
  }
  JOINT RightThigh
  {
    OFFSET -8.409438 0 -5.917753
    CHANNELS 3 Zrotation Yrotation Xrotation
    JOINT RightLeg
    {
      OFFSET 0 0 -42.358652
      CHANNELS 3 Zrotation Yrotation Xrotation
      JOINT RightFoot
      {
        OFFSET 0 0 -39.357303
        CHANNELS 3 Zrotation Yrotation Xrotation
      }
    }
  }
  JOINT SpineLow
  {
    OFFSET 0 0 4.719101
    CHANNELS 3 Zrotation Yrotation Xrotation
    JOINT SpineMid
    {
      OFFSET 0 0 12.899191
      CHANNELS 3 Zrotation Yrotation Xrotation
      JOINT Chest
      {
        OFFSET 0 0 12.899191
        CHANNELS 3 Zrotation Yrotation Xrotation
        JOINT LeftShoulder
        {
          OFFSET 7.550562 1.41573 9.438202
          CHANNELS 3 Zrotation Yrotation Xrotation
          JOINT LeftArm
          {
            OFFSET 9.155056 0 4.247191
            CHANNELS 3 Zrotation Yrotation Xrotation
            JOINT LeftForearm
            {
              OFFSET 0 0 25.771955
              CHANNELS 3 Zrotation Yrotation Xrotation
              JOINT LeftHand
              {
                OFFSET 0 0 25.197169
                CHANNELS 3 Zrotation Yrotation Xrotation
              }
            }
          }
        }
        JOINT RightShoulder
        {
          OFFSET -7.550562 1.41573 9.438202
          CHANNELS 3 Zrotation Yrotation Xrotation
          JOINT RightArm
          {
            OFFSET -9.155056 0 4.247191
            CHANNELS 3 Zrotation Yrotation Xrotation
            JOINT RightForearm
            {
              OFFSET 0 0 -25.771955
              CHANNELS 3 Zrotation Yrotation Xrotation
              JOINT RightHand
              {
                OFFSET 0 0 -25.197169
                CHANNELS 3 Zrotation Yrotation Xrotation
              }
            }
          }
        }
        JOINT Neck
        {
          OFFSET 0 0 15.101124
          CHANNELS 3 Zrotation Yrotation Xrotation
          JOINT Head
          {
            OFFSET 0 0 11.325843
            CHANNELS 3 Zrotation Yrotation Xrotation
            End Site
            {
              OFFSET 0 0 14.157303
            }
          }
        }
      }
    }
  }
}
MOTION
Frames: 14
Frame Time: 0.0
0.0  93.25843  0.0  11.751573  -2.916571  -117.62359  41.710897  -12.161982  -95.450455  9.13814  33.585794  99.789957  -6.174884  0.237572  -2.672126  -7.642098  5.050202  16.095346  4.071804  10.11059  16.342942  5.807555  3.9255  3.219684  0.660776  0.215143  3.789743  1.834757  0.483003  10.364046  1.834757  0.483003  10.364046  0.133952  28.550503  16.955158  165.61601  23.257135  -161.68875  -10.44178  -27.235644  51.052839  70.937674  -33.047055  28.94768  2.933811  -3.265707  27.608242  81.688889  42.124295  32.919281  -29.916312  13.222909  -48.584335  78.322173  -17.961773  -2.82097  -0.29807  5.325629  1.378819  -0.235438  3.993575  1.035972  
0.0  93.25843  0.0  10.603077  -2.278601  -116.275901  40.824458  -12.417553  -92.526594  9.820539  32.910523  100.645903  -6.415023  0.164696  -2.485731  -7.885357  3.50083  14.903723  3.734946  10.041257  16.237757  5.550932  3.959653  3.292203  0.575302  0.130465  3.699722  1.588237  0.267772  10.11532  1.588237  0.267772  10.115319  0.611047  28.097038  16.454814  166.455122  23.291769  -161.421055  -8.973515  -27.066653  51.83759  70.253549  -32.954912  29.383149  3.416648  -3.329143  27.195696  82.751  42.04887  33.170902  -31.337193  14.006468  -47.973239  76.464143  -18.221487  -1.844653  -0.473577  5.236411  1.099947  -0.364384  3.926474  0.828453  
0.0  93.25843  0.0  9.355842  -1.515683  -114.764804  39.751866  -12.734913  -89.407911  10.360405  32.051458  101.300467  -6.69417  0.045939  -2.289607  -7.85525  1.766316  13.61685  3.250669  9.845131  16.069351  5.107391  4.087876  3.330772  0.560478  0.030431  3.566926  1.532664  4.35E-4  9.749939  1.532664  4.35E-4  9.749939  0.461368  27.461526  15.690795  167.616482  23.56977  -161.067241  -7.243206  -26.892324  52.584896  70.280492  -32.843055  29.577751  3.333007  -3.472866  26.983456  83.927545  42.348037  33.448292  -32.816152  14.167415  -47.260196  75.530615  -18.412313  -1.289244  -0.908016  5.093567  0.913256  -0.688194  3.81884  0.692078  
0.0  93.25843  0.0  8.071705  -0.655271  -113.228207  38.528923  -13.170536  -86.030329  10.719303  31.069931  101.742186  -6.988842  -0.087625  -2.113927  -7.715992  0.05441  12.272787  2.643848  9.660366  15.785611  4.604928  4.148861  3.360081  0.60565  -0.084314  3.396298  1.639921  -0.314854  9.280721  1.639921  -0.314854  9.280721  -0.126427  26.862652  15.208712  168.232611  24.090204  -160.493803  -5.854285  -27.306356  53.136971  70.725672  -32.776258  29.439008  2.778947  -3.625789  26.950968  84.52647  43.01234  33.402072  -33.906865  14.101481  -46.686271  75.249964  -18.628467  -1.264818  -1.560483  4.927598  0.815218  -1.176229  3.693655  0.62365  
0.0  93.25843  0.0  6.854081  0.204474  -111.684968  37.26902  -13.694812  -82.364033  10.923495  30.023859  101.921975  -7.281671  -0.259795  -1.963979  -7.449053  -1.544104  10.854017  1.854121  9.532655  15.392153  4.275698  4.22554  3.413261  0.657881  -0.2038  3.227412  1.76746  -0.64356  8.815765  1.76746  -0.64356  8.815765  -0.940544  26.453027  14.660516  168.185468  24.8684  -159.928088  -4.934317  -28.308407  53.537194  71.35432  -32.633471  28.8436  2.318791  -3.694842  26.826182  84.196915  43.834166  32.84632  -34.60422  14.056729  -46.633518  75.543712  -18.874415  -1.484553  -2.132757  4.791029  0.681378  -1.603989  3.590953  0.527497  
0.0  93.25843  0.0  5.698625  0.902299  -110.015646  36.161267  -14.32426  -78.645958  11.07997  28.992763  101.864625  -7.512362  -0.469647  -1.844788  -7.025977  -3.073525  9.226402  0.981055  9.347359  14.948687  3.976272  4.195481  3.452925  0.686467  -0.321493  3.013278  1.833146  -0.962558  8.227136  1.833146  -0.962558  8.227136  -1.276453  26.16259  14.245318  167.680252  25.923183  -159.545669  -4.23113  -29.507628  54.009449  72.586986  -32.307911  27.512227  2.099355  -3.594769  26.694205  83.213124  44.57818  31.76235  -34.850533  14.222768  -46.991599  76.174054  -19.016976  -1.562448  -2.562487  4.684883  0.544857  -1.924979  3.511456  0.428106  
0.0  93.25843  0.0  4.835308  0.878607  -108.723975  35.665198  -15.329875  -74.512407  11.253141  27.991657  101.58046  -7.676935  -0.701206  -1.741437  -6.059092  -4.01271  7.792151  0.169823  9.122651  14.466268  3.907557  3.86622  3.574725  0.812181  -0.400773  2.860895  2.169294  -1.189554  7.806265  2.169294  -1.189554  7.806266  -1.420401  25.786689  13.820029  167.134348  27.247407  -159.113657  -3.298424  -30.728365  54.453709  74.528094  -31.70625  25.214659  2.054684  -3.601038  26.487882  81.765507  45.41892  30.474421  -34.549354  14.800085  -47.585915  76.553305  -18.996877  -1.38387  -2.759203  4.53703  0.447479  -2.071649  3.400838  0.355965  
0.0  93.25843  0.0  3.813887  1.437138  -107.072882  34.586152  -16.231936  -70.654175  11.444535  27.0978  101.084756  -7.733297  -0.94483  -1.661236  -5.571282  -5.219728  6.170837  -0.642863  8.802746  13.905179  3.672931  3.797879  3.645004  0.855926  -0.486029  2.667455  2.283073  -1.420793  7.273995  2.283073  -1.420793  7.273995  -1.66441  25.404436  13.256719  166.713659  28.622884  -158.559589  -2.025545  -32.030103  54.873037  76.889724  -30.592464  22.106802  1.927292  -3.664138  26.062855  80.902573  46.051373  29.587182  -34.337246  15.800187  -48.203225  76.533183  -18.938573  -0.935146  -3.145511  4.351367  0.196552  -2.3594  3.262617  0.169783  
0.0  93.25843  0.0  2.77487  2.136484  -105.324112  33.32529  -17.126049  -66.968595  11.638445  26.276666  100.438472  -7.695831  -1.229196  -1.635062  -5.368448  -6.329395  4.443204  -1.489809  8.563705  13.227991  3.483929  3.724243  3.708633  0.8638  -0.564897  2.450405  2.301548  -1.629509  6.678014  2.301548  -1.629509  6.678014  -1.909267  24.857525  12.619291  166.562198  29.929965  -157.844385  -0.692216  -33.176666  55.319701  79.22205  -28.889676  18.683687  1.914616  -3.826046  25.599512  80.486021  46.662158  29.080195  -34.306311  16.950534  -48.841755  76.324375  -18.867305  -0.382126  -3.446215  4.15683  -0.010231  -2.583457  3.117797  0.015807  
0.0  93.25843  0.0  1.757528  3.073142  -103.630599  31.75237  -17.987455  -63.342564  11.776281  25.467356  99.611659  -7.574641  -1.519202  -1.611977  -5.576616  -7.353493  2.817675  -1.954729  8.321295  12.650331  3.237752  3.577659  3.778117  0.833931  -0.645695  2.234527  2.21812  -1.839989  6.086195  2.21812  -1.839989  6.086195  -2.099975  24.252499  12.040688  166.625335  31.018853  -156.952459  0.502576  -34.160984  55.955582  81.102885  -26.791365  15.312427  1.820584  -3.980132  25.072591  80.771652  47.182966  29.061954  -34.731268  17.937483  -49.520354  76.268403  -18.749945  0.073056  -3.774969  3.981341  -0.199572  -2.828785  2.987373  -0.124996  
0.0  93.25843  0.0  0.868964  4.016129  -102.018626  30.142847  -18.724155  -59.6827  11.752946  24.615028  98.554889  -7.445825  -1.815662  -1.553376  -7.670126  -8.056427  0.381238  -0.678683  8.074509  13.121735  2.77212  3.48638  3.700199  0.773402  -0.723803  2.012486  2.052717  -2.04098  5.478732  2.052717  -2.04098  5.478731  -2.078421  23.686131  11.634938  166.665451  31.98811  -155.933107  0.797303  -34.777989  56.259938  82.422482  -25.272638  12.519448  1.822878  -4.046576  24.59447  81.586739  47.639301  29.355183  -35.536382  18.673284  -50.31043  76.438594  -18.652633  0.370705  -3.966658  3.863207  -0.295367  -2.971996  2.899466  -0.196343  
0.0  93.25843  0.0  0.157331  4.820405  -100.58672  28.694808  -19.343349  -55.851563  11.527469  23.844917  97.29598  -7.192265  -2.097239  -1.43665  -7.944593  -8.908831  -0.984769  -0.9293  8.085619  12.703697  2.557316  3.280341  3.770596  0.74091  -0.799031  1.796609  1.965255  -2.237489  4.887553  1.965255  -2.237489  4.887552  -2.091437  23.174719  11.348578  166.612084  32.815464  -154.974733  0.705805  -35.231337  57.236071  82.897143  -23.412823  9.919158  1.727381  -4.122301  24.116744  82.631208  48.037034  29.927574  -36.593939  19.10381  -51.271156  76.813118  -18.582351  0.372613  -4.211664  3.771852  -0.332205  -3.155555  2.831337  -0.223049  
0.0  93.25843  0.0  -0.443405  5.677834  -99.341624  27.207498  -19.850223  -51.741054  11.10256  23.226887  95.747443  -6.809184  -2.381485  -1.293557  -8.096594  -9.72371  -2.267152  -1.36541  8.313837  12.410189  2.298042  3.017525  3.876001  0.70346  -0.876371  1.582357  1.865327  -2.440092  4.301091  1.865327  -2.440092  4.30109  -2.162889  22.752987  11.208236  166.296335  33.616464  -154.118231  -0.254208  -35.445122  58.443707  82.954665  -22.042095  7.979317  1.563852  -4.19252  23.707278  83.697443  48.397744  30.623272  -37.714814  19.258676  -52.434293  77.19388  -18.515005  0.080777  -4.426574  3.719681  -0.290418  -3.316994  2.792037  -0.190772  
0.0  93.25843  0.0  -0.963934  6.570797  -98.273299  25.745132  -20.339747  -47.286088  10.461099  22.737528  93.793635  -6.26023  -2.655122  -1.102541  -8.125789  -10.455076  -3.485897  -2.125169  8.678769  12.343958  1.920174  2.773501  3.865317  0.661578  -0.959134  1.385008  1.753605  -2.658382  3.761074  1.753606  -2.658382  3.761074  -2.243551  22.41681  11.145239  165.920465  34.329865  -153.396794  -1.409218  -35.731113  59.967836  82.945496  -21.148866  6.747638  1.338997  -4.172858  23.322164  84.446085  48.806896  31.126917  -38.809359  19.249024  -53.795689  77.55235  -18.270225  -0.646372  -4.687535  3.710202  -0.308326  -3.512549  2.78521  -0.202684  
